<mxfile host="app.diagrams.net" modified="2020-10-08T08:58:45.248Z" agent="5.0 (Windows NT 10.0; Win64; x64) AppleWebKit/537.36 (KHTML, like Gecko) Chrome/86.0.4240.75 Safari/537.36" etag="3NJ_jfOiG4hO_FxqXhWu" version="13.7.8" type="github">
  <diagram id="4PVjUjLe_mA3GavB9rSC" name="Page-1">
    <mxGraphModel dx="1422" dy="766" grid="1" gridSize="10" guides="1" tooltips="1" connect="1" arrows="1" fold="1" page="1" pageScale="1" pageWidth="850" pageHeight="1100" math="0" shadow="0">
      <root>
        <mxCell id="0" />
        <mxCell id="1" parent="0" />
        <mxCell id="U4mUp0Or5NnO_GNzlO5a-1" value="Database" style="shape=datastore;whiteSpace=wrap;html=1;" vertex="1" parent="1">
          <mxGeometry x="350" y="940" width="120" height="80" as="geometry" />
        </mxCell>
        <mxCell id="U4mUp0Or5NnO_GNzlO5a-54" value="MAL API" style="ellipse;shape=cloud;whiteSpace=wrap;html=1;fillColor=#dae8fc;strokeColor=#6c8ebf;" vertex="1" parent="1">
          <mxGeometry x="200" y="30" width="150" height="120" as="geometry" />
        </mxCell>
        <mxCell id="U4mUp0Or5NnO_GNzlO5a-55" value="Anilist API" style="ellipse;shape=cloud;whiteSpace=wrap;html=1;fillColor=#dae8fc;strokeColor=#6c8ebf;" vertex="1" parent="1">
          <mxGeometry x="460" y="30" width="150" height="120" as="geometry" />
        </mxCell>
        <mxCell id="U4mUp0Or5NnO_GNzlO5a-56" value="" style="endArrow=classic;html=1;" edge="1" parent="1">
          <mxGeometry width="50" height="50" relative="1" as="geometry">
            <mxPoint x="470" y="590" as="sourcePoint" />
            <mxPoint x="495" y="650" as="targetPoint" />
          </mxGeometry>
        </mxCell>
        <mxCell id="U4mUp0Or5NnO_GNzlO5a-58" value="" style="endArrow=classic;html=1;" edge="1" parent="1">
          <mxGeometry width="50" height="50" relative="1" as="geometry">
            <mxPoint x="687.5" y="580" as="sourcePoint" />
            <mxPoint x="630" y="650" as="targetPoint" />
          </mxGeometry>
        </mxCell>
        <mxCell id="U4mUp0Or5NnO_GNzlO5a-15" value="Table" style="shape=table;startSize=30;container=1;collapsible=1;childLayout=tableLayout;fixedRows=1;rowLines=0;fontStyle=1;align=center;resizeLast=1;fillColor=#fff2cc;strokeColor=#d6b656;" vertex="1" parent="1">
          <mxGeometry x="350" y="400" width="180" height="160" as="geometry" />
        </mxCell>
        <mxCell id="U4mUp0Or5NnO_GNzlO5a-16" value="" style="shape=partialRectangle;collapsible=0;dropTarget=0;pointerEvents=0;fillColor=none;top=0;left=0;bottom=1;right=0;points=[[0,0.5],[1,0.5]];portConstraint=eastwest;" vertex="1" parent="U4mUp0Or5NnO_GNzlO5a-15">
          <mxGeometry y="30" width="180" height="30" as="geometry" />
        </mxCell>
        <mxCell id="U4mUp0Or5NnO_GNzlO5a-17" value="PK" style="shape=partialRectangle;connectable=0;fillColor=none;top=0;left=0;bottom=0;right=0;fontStyle=1;overflow=hidden;" vertex="1" parent="U4mUp0Or5NnO_GNzlO5a-16">
          <mxGeometry width="30" height="30" as="geometry" />
        </mxCell>
        <mxCell id="U4mUp0Or5NnO_GNzlO5a-18" value="MAL user ID" style="shape=partialRectangle;connectable=0;fillColor=none;top=0;left=0;bottom=0;right=0;align=left;spacingLeft=6;fontStyle=5;overflow=hidden;" vertex="1" parent="U4mUp0Or5NnO_GNzlO5a-16">
          <mxGeometry x="30" width="150" height="30" as="geometry" />
        </mxCell>
        <mxCell id="U4mUp0Or5NnO_GNzlO5a-19" value="" style="shape=partialRectangle;collapsible=0;dropTarget=0;pointerEvents=0;fillColor=none;top=0;left=0;bottom=0;right=0;points=[[0,0.5],[1,0.5]];portConstraint=eastwest;" vertex="1" parent="U4mUp0Or5NnO_GNzlO5a-15">
          <mxGeometry y="60" width="180" height="30" as="geometry" />
        </mxCell>
        <mxCell id="U4mUp0Or5NnO_GNzlO5a-20" value="" style="shape=partialRectangle;connectable=0;fillColor=none;top=0;left=0;bottom=0;right=0;editable=1;overflow=hidden;" vertex="1" parent="U4mUp0Or5NnO_GNzlO5a-19">
          <mxGeometry width="30" height="30" as="geometry" />
        </mxCell>
        <mxCell id="U4mUp0Or5NnO_GNzlO5a-21" value="Watched anime list" style="shape=partialRectangle;connectable=0;fillColor=none;top=0;left=0;bottom=0;right=0;align=left;spacingLeft=6;overflow=hidden;" vertex="1" parent="U4mUp0Or5NnO_GNzlO5a-19">
          <mxGeometry x="30" width="150" height="30" as="geometry" />
        </mxCell>
        <mxCell id="U4mUp0Or5NnO_GNzlO5a-22" value="" style="shape=partialRectangle;collapsible=0;dropTarget=0;pointerEvents=0;fillColor=none;top=0;left=0;bottom=0;right=0;points=[[0,0.5],[1,0.5]];portConstraint=eastwest;" vertex="1" parent="U4mUp0Or5NnO_GNzlO5a-15">
          <mxGeometry y="90" width="180" height="30" as="geometry" />
        </mxCell>
        <mxCell id="U4mUp0Or5NnO_GNzlO5a-23" value="" style="shape=partialRectangle;connectable=0;fillColor=none;top=0;left=0;bottom=0;right=0;editable=1;overflow=hidden;" vertex="1" parent="U4mUp0Or5NnO_GNzlO5a-22">
          <mxGeometry width="30" height="30" as="geometry" />
        </mxCell>
        <mxCell id="U4mUp0Or5NnO_GNzlO5a-24" value="(MAL friends)" style="shape=partialRectangle;connectable=0;fillColor=none;top=0;left=0;bottom=0;right=0;align=left;spacingLeft=6;overflow=hidden;" vertex="1" parent="U4mUp0Or5NnO_GNzlO5a-22">
          <mxGeometry x="30" width="150" height="30" as="geometry" />
        </mxCell>
        <mxCell id="U4mUp0Or5NnO_GNzlO5a-25" value="" style="shape=partialRectangle;collapsible=0;dropTarget=0;pointerEvents=0;fillColor=none;top=0;left=0;bottom=0;right=0;points=[[0,0.5],[1,0.5]];portConstraint=eastwest;" vertex="1" parent="U4mUp0Or5NnO_GNzlO5a-15">
          <mxGeometry y="120" width="180" height="30" as="geometry" />
        </mxCell>
        <mxCell id="U4mUp0Or5NnO_GNzlO5a-26" value="" style="shape=partialRectangle;connectable=0;fillColor=none;top=0;left=0;bottom=0;right=0;editable=1;overflow=hidden;" vertex="1" parent="U4mUp0Or5NnO_GNzlO5a-25">
          <mxGeometry width="30" height="30" as="geometry" />
        </mxCell>
        <mxCell id="U4mUp0Or5NnO_GNzlO5a-27" value="" style="shape=partialRectangle;connectable=0;fillColor=none;top=0;left=0;bottom=0;right=0;align=left;spacingLeft=6;overflow=hidden;" vertex="1" parent="U4mUp0Or5NnO_GNzlO5a-25">
          <mxGeometry x="30" width="150" height="30" as="geometry" />
        </mxCell>
        <mxCell id="U4mUp0Or5NnO_GNzlO5a-28" value="Table" style="shape=table;startSize=30;container=1;collapsible=1;childLayout=tableLayout;fixedRows=1;rowLines=0;fontStyle=1;align=center;resizeLast=1;fillColor=#fff2cc;strokeColor=#d6b656;" vertex="1" parent="1">
          <mxGeometry x="610" y="400" width="180" height="160" as="geometry" />
        </mxCell>
        <mxCell id="U4mUp0Or5NnO_GNzlO5a-29" value="" style="shape=partialRectangle;collapsible=0;dropTarget=0;pointerEvents=0;fillColor=none;top=0;left=0;bottom=1;right=0;points=[[0,0.5],[1,0.5]];portConstraint=eastwest;" vertex="1" parent="U4mUp0Or5NnO_GNzlO5a-28">
          <mxGeometry y="30" width="180" height="30" as="geometry" />
        </mxCell>
        <mxCell id="U4mUp0Or5NnO_GNzlO5a-30" value="PK" style="shape=partialRectangle;connectable=0;fillColor=none;top=0;left=0;bottom=0;right=0;fontStyle=1;overflow=hidden;" vertex="1" parent="U4mUp0Or5NnO_GNzlO5a-29">
          <mxGeometry width="30" height="30" as="geometry" />
        </mxCell>
        <mxCell id="U4mUp0Or5NnO_GNzlO5a-31" value="Anilist user ID" style="shape=partialRectangle;connectable=0;fillColor=none;top=0;left=0;bottom=0;right=0;align=left;spacingLeft=6;fontStyle=5;overflow=hidden;" vertex="1" parent="U4mUp0Or5NnO_GNzlO5a-29">
          <mxGeometry x="30" width="150" height="30" as="geometry" />
        </mxCell>
        <mxCell id="U4mUp0Or5NnO_GNzlO5a-32" value="" style="shape=partialRectangle;collapsible=0;dropTarget=0;pointerEvents=0;fillColor=none;top=0;left=0;bottom=0;right=0;points=[[0,0.5],[1,0.5]];portConstraint=eastwest;" vertex="1" parent="U4mUp0Or5NnO_GNzlO5a-28">
          <mxGeometry y="60" width="180" height="30" as="geometry" />
        </mxCell>
        <mxCell id="U4mUp0Or5NnO_GNzlO5a-33" value="" style="shape=partialRectangle;connectable=0;fillColor=none;top=0;left=0;bottom=0;right=0;editable=1;overflow=hidden;" vertex="1" parent="U4mUp0Or5NnO_GNzlO5a-32">
          <mxGeometry width="30" height="30" as="geometry" />
        </mxCell>
        <mxCell id="U4mUp0Or5NnO_GNzlO5a-34" value="Watched anime list" style="shape=partialRectangle;connectable=0;fillColor=none;top=0;left=0;bottom=0;right=0;align=left;spacingLeft=6;overflow=hidden;" vertex="1" parent="U4mUp0Or5NnO_GNzlO5a-32">
          <mxGeometry x="30" width="150" height="30" as="geometry" />
        </mxCell>
        <mxCell id="U4mUp0Or5NnO_GNzlO5a-35" value="" style="shape=partialRectangle;collapsible=0;dropTarget=0;pointerEvents=0;fillColor=none;top=0;left=0;bottom=0;right=0;points=[[0,0.5],[1,0.5]];portConstraint=eastwest;" vertex="1" parent="U4mUp0Or5NnO_GNzlO5a-28">
          <mxGeometry y="90" width="180" height="30" as="geometry" />
        </mxCell>
        <mxCell id="U4mUp0Or5NnO_GNzlO5a-36" value="" style="shape=partialRectangle;connectable=0;fillColor=none;top=0;left=0;bottom=0;right=0;editable=1;overflow=hidden;" vertex="1" parent="U4mUp0Or5NnO_GNzlO5a-35">
          <mxGeometry width="30" height="30" as="geometry" />
        </mxCell>
        <mxCell id="U4mUp0Or5NnO_GNzlO5a-37" value="(Anilist friends)" style="shape=partialRectangle;connectable=0;fillColor=none;top=0;left=0;bottom=0;right=0;align=left;spacingLeft=6;overflow=hidden;" vertex="1" parent="U4mUp0Or5NnO_GNzlO5a-35">
          <mxGeometry x="30" width="150" height="30" as="geometry" />
        </mxCell>
        <mxCell id="U4mUp0Or5NnO_GNzlO5a-38" value="" style="shape=partialRectangle;collapsible=0;dropTarget=0;pointerEvents=0;fillColor=none;top=0;left=0;bottom=0;right=0;points=[[0,0.5],[1,0.5]];portConstraint=eastwest;" vertex="1" parent="U4mUp0Or5NnO_GNzlO5a-28">
          <mxGeometry y="120" width="180" height="30" as="geometry" />
        </mxCell>
        <mxCell id="U4mUp0Or5NnO_GNzlO5a-39" value="" style="shape=partialRectangle;connectable=0;fillColor=none;top=0;left=0;bottom=0;right=0;editable=1;overflow=hidden;" vertex="1" parent="U4mUp0Or5NnO_GNzlO5a-38">
          <mxGeometry width="30" height="30" as="geometry" />
        </mxCell>
        <mxCell id="U4mUp0Or5NnO_GNzlO5a-40" value="" style="shape=partialRectangle;connectable=0;fillColor=none;top=0;left=0;bottom=0;right=0;align=left;spacingLeft=6;overflow=hidden;" vertex="1" parent="U4mUp0Or5NnO_GNzlO5a-38">
          <mxGeometry x="30" width="150" height="30" as="geometry" />
        </mxCell>
        <mxCell id="U4mUp0Or5NnO_GNzlO5a-41" value="Table" style="shape=table;startSize=30;container=1;collapsible=1;childLayout=tableLayout;fixedRows=1;rowLines=0;fontStyle=1;align=center;resizeLast=1;fillColor=#f8cecc;strokeColor=#b85450;" vertex="1" parent="1">
          <mxGeometry x="480" y="680" width="180" height="160" as="geometry" />
        </mxCell>
        <mxCell id="U4mUp0Or5NnO_GNzlO5a-42" value="" style="shape=partialRectangle;collapsible=0;dropTarget=0;pointerEvents=0;fillColor=none;top=0;left=0;bottom=1;right=0;points=[[0,0.5],[1,0.5]];portConstraint=eastwest;" vertex="1" parent="U4mUp0Or5NnO_GNzlO5a-41">
          <mxGeometry y="30" width="180" height="30" as="geometry" />
        </mxCell>
        <mxCell id="U4mUp0Or5NnO_GNzlO5a-43" value="PK" style="shape=partialRectangle;connectable=0;fillColor=none;top=0;left=0;bottom=0;right=0;fontStyle=1;overflow=hidden;" vertex="1" parent="U4mUp0Or5NnO_GNzlO5a-42">
          <mxGeometry width="30" height="30" as="geometry" />
        </mxCell>
        <mxCell id="U4mUp0Or5NnO_GNzlO5a-44" value="SOS user ID" style="shape=partialRectangle;connectable=0;fillColor=none;top=0;left=0;bottom=0;right=0;align=left;spacingLeft=6;fontStyle=5;overflow=hidden;" vertex="1" parent="U4mUp0Or5NnO_GNzlO5a-42">
          <mxGeometry x="30" width="150" height="30" as="geometry" />
        </mxCell>
        <mxCell id="U4mUp0Or5NnO_GNzlO5a-45" value="" style="shape=partialRectangle;collapsible=0;dropTarget=0;pointerEvents=0;fillColor=none;top=0;left=0;bottom=0;right=0;points=[[0,0.5],[1,0.5]];portConstraint=eastwest;" vertex="1" parent="U4mUp0Or5NnO_GNzlO5a-41">
          <mxGeometry y="60" width="180" height="30" as="geometry" />
        </mxCell>
        <mxCell id="U4mUp0Or5NnO_GNzlO5a-46" value="" style="shape=partialRectangle;connectable=0;fillColor=none;top=0;left=0;bottom=0;right=0;editable=1;overflow=hidden;" vertex="1" parent="U4mUp0Or5NnO_GNzlO5a-45">
          <mxGeometry width="30" height="30" as="geometry" />
        </mxCell>
        <mxCell id="U4mUp0Or5NnO_GNzlO5a-47" value="Watched anime list" style="shape=partialRectangle;connectable=0;fillColor=none;top=0;left=0;bottom=0;right=0;align=left;spacingLeft=6;overflow=hidden;" vertex="1" parent="U4mUp0Or5NnO_GNzlO5a-45">
          <mxGeometry x="30" width="150" height="30" as="geometry" />
        </mxCell>
        <mxCell id="U4mUp0Or5NnO_GNzlO5a-48" value="" style="shape=partialRectangle;collapsible=0;dropTarget=0;pointerEvents=0;fillColor=none;top=0;left=0;bottom=0;right=0;points=[[0,0.5],[1,0.5]];portConstraint=eastwest;" vertex="1" parent="U4mUp0Or5NnO_GNzlO5a-41">
          <mxGeometry y="90" width="180" height="30" as="geometry" />
        </mxCell>
        <mxCell id="U4mUp0Or5NnO_GNzlO5a-49" value="" style="shape=partialRectangle;connectable=0;fillColor=none;top=0;left=0;bottom=0;right=0;editable=1;overflow=hidden;" vertex="1" parent="U4mUp0Or5NnO_GNzlO5a-48">
          <mxGeometry width="30" height="30" as="geometry" />
        </mxCell>
        <mxCell id="U4mUp0Or5NnO_GNzlO5a-50" value="SOS friends" style="shape=partialRectangle;connectable=0;fillColor=none;top=0;left=0;bottom=0;right=0;align=left;spacingLeft=6;overflow=hidden;" vertex="1" parent="U4mUp0Or5NnO_GNzlO5a-48">
          <mxGeometry x="30" width="150" height="30" as="geometry" />
        </mxCell>
        <mxCell id="U4mUp0Or5NnO_GNzlO5a-51" value="" style="shape=partialRectangle;collapsible=0;dropTarget=0;pointerEvents=0;fillColor=none;top=0;left=0;bottom=0;right=0;points=[[0,0.5],[1,0.5]];portConstraint=eastwest;" vertex="1" parent="U4mUp0Or5NnO_GNzlO5a-41">
          <mxGeometry y="120" width="180" height="30" as="geometry" />
        </mxCell>
        <mxCell id="U4mUp0Or5NnO_GNzlO5a-52" value="" style="shape=partialRectangle;connectable=0;fillColor=none;top=0;left=0;bottom=0;right=0;editable=1;overflow=hidden;" vertex="1" parent="U4mUp0Or5NnO_GNzlO5a-51">
          <mxGeometry width="30" height="30" as="geometry" />
        </mxCell>
        <mxCell id="U4mUp0Or5NnO_GNzlO5a-53" value="" style="shape=partialRectangle;connectable=0;fillColor=none;top=0;left=0;bottom=0;right=0;align=left;spacingLeft=6;overflow=hidden;" vertex="1" parent="U4mUp0Or5NnO_GNzlO5a-51">
          <mxGeometry x="30" width="150" height="30" as="geometry" />
        </mxCell>
        <mxCell id="U4mUp0Or5NnO_GNzlO5a-60" value="" style="curved=1;endArrow=classic;html=1;exitX=1;exitY=0.133;exitDx=0;exitDy=0;exitPerimeter=0;entryX=0;entryY=0.5;entryDx=0;entryDy=0;" edge="1" parent="1" source="U4mUp0Or5NnO_GNzlO5a-9" target="U4mUp0Or5NnO_GNzlO5a-19">
          <mxGeometry width="50" height="50" relative="1" as="geometry">
            <mxPoint x="260" y="520" as="sourcePoint" />
            <mxPoint x="340" y="470" as="targetPoint" />
            <Array as="points">
              <mxPoint x="320" y="380" />
              <mxPoint x="260" y="440" />
            </Array>
          </mxGeometry>
        </mxCell>
        <mxCell id="U4mUp0Or5NnO_GNzlO5a-61" value="" style="curved=1;endArrow=classic;html=1;exitX=1;exitY=0.1;exitDx=0;exitDy=0;exitPerimeter=0;entryX=0;entryY=0.5;entryDx=0;entryDy=0;" edge="1" parent="1" source="U4mUp0Or5NnO_GNzlO5a-9">
          <mxGeometry width="50" height="50" relative="1" as="geometry">
            <mxPoint x="500" y="310" as="sourcePoint" />
            <mxPoint x="610" y="471.01" as="targetPoint" />
            <Array as="points">
              <mxPoint x="580" y="340" />
              <mxPoint x="580" y="450" />
            </Array>
          </mxGeometry>
        </mxCell>
        <mxCell id="U4mUp0Or5NnO_GNzlO5a-62" value="" style="shape=flexArrow;endArrow=classic;html=1;fillColor=#f8cecc;strokeColor=#b85450;" edge="1" parent="1">
          <mxGeometry width="50" height="50" relative="1" as="geometry">
            <mxPoint x="510" y="860" as="sourcePoint" />
            <mxPoint x="430" y="930" as="targetPoint" />
          </mxGeometry>
        </mxCell>
        <mxCell id="U4mUp0Or5NnO_GNzlO5a-64" value="NOTES" style="swimlane;childLayout=stackLayout;horizontal=1;startSize=30;horizontalStack=0;rounded=1;fontSize=14;fontStyle=0;strokeWidth=2;resizeParent=0;resizeLast=1;shadow=0;dashed=0;align=center;fillColor=#e1d5e7;strokeColor=#9673a6;" vertex="1" parent="1">
          <mxGeometry x="20" y="850" width="220" height="240" as="geometry" />
        </mxCell>
        <mxCell id="U4mUp0Or5NnO_GNzlO5a-65" value="Anime and user data is pulled from&#xa;MAL and Anilist APIs.&#xa;&#xa;Do we use cumulative member counts?&#xa;" style="align=left;strokeColor=none;fillColor=none;spacingLeft=4;fontSize=12;verticalAlign=top;resizable=0;rotatable=0;part=1;" vertex="1" parent="U4mUp0Or5NnO_GNzlO5a-64">
          <mxGeometry y="30" width="220" height="210" as="geometry" />
        </mxCell>
        <mxCell id="U4mUp0Or5NnO_GNzlO5a-2" value="Table" style="shape=table;startSize=30;container=1;collapsible=1;childLayout=tableLayout;fixedRows=1;rowLines=0;fontStyle=1;align=center;resizeLast=1;fillColor=#f8cecc;strokeColor=#b85450;" vertex="1" parent="1">
          <mxGeometry x="30" y="250" width="180" height="160" as="geometry" />
        </mxCell>
        <mxCell id="U4mUp0Or5NnO_GNzlO5a-3" value="" style="shape=partialRectangle;collapsible=0;dropTarget=0;pointerEvents=0;fillColor=none;top=0;left=0;bottom=1;right=0;points=[[0,0.5],[1,0.5]];portConstraint=eastwest;" vertex="1" parent="U4mUp0Or5NnO_GNzlO5a-2">
          <mxGeometry y="30" width="180" height="30" as="geometry" />
        </mxCell>
        <mxCell id="U4mUp0Or5NnO_GNzlO5a-4" value="PK" style="shape=partialRectangle;connectable=0;fillColor=none;top=0;left=0;bottom=0;right=0;fontStyle=1;overflow=hidden;" vertex="1" parent="U4mUp0Or5NnO_GNzlO5a-3">
          <mxGeometry width="30" height="30" as="geometry" />
        </mxCell>
        <mxCell id="U4mUp0Or5NnO_GNzlO5a-5" value="MAL anime ID" style="shape=partialRectangle;connectable=0;fillColor=none;top=0;left=0;bottom=0;right=0;align=left;spacingLeft=6;fontStyle=5;overflow=hidden;" vertex="1" parent="U4mUp0Or5NnO_GNzlO5a-3">
          <mxGeometry x="30" width="150" height="30" as="geometry" />
        </mxCell>
        <mxCell id="U4mUp0Or5NnO_GNzlO5a-6" value="" style="shape=partialRectangle;collapsible=0;dropTarget=0;pointerEvents=0;fillColor=none;top=0;left=0;bottom=0;right=0;points=[[0,0.5],[1,0.5]];portConstraint=eastwest;" vertex="1" parent="U4mUp0Or5NnO_GNzlO5a-2">
          <mxGeometry y="60" width="180" height="30" as="geometry" />
        </mxCell>
        <mxCell id="U4mUp0Or5NnO_GNzlO5a-7" value="" style="shape=partialRectangle;connectable=0;fillColor=none;top=0;left=0;bottom=0;right=0;editable=1;overflow=hidden;" vertex="1" parent="U4mUp0Or5NnO_GNzlO5a-6">
          <mxGeometry width="30" height="30" as="geometry" />
        </mxCell>
        <mxCell id="U4mUp0Or5NnO_GNzlO5a-8" value="Title" style="shape=partialRectangle;connectable=0;fillColor=none;top=0;left=0;bottom=0;right=0;align=left;spacingLeft=6;overflow=hidden;" vertex="1" parent="U4mUp0Or5NnO_GNzlO5a-6">
          <mxGeometry x="30" width="150" height="30" as="geometry" />
        </mxCell>
        <mxCell id="U4mUp0Or5NnO_GNzlO5a-9" value="" style="shape=partialRectangle;collapsible=0;dropTarget=0;pointerEvents=0;fillColor=none;top=0;left=0;bottom=0;right=0;points=[[0,0.5],[1,0.5]];portConstraint=eastwest;" vertex="1" parent="U4mUp0Or5NnO_GNzlO5a-2">
          <mxGeometry y="90" width="180" height="30" as="geometry" />
        </mxCell>
        <mxCell id="U4mUp0Or5NnO_GNzlO5a-10" value="" style="shape=partialRectangle;connectable=0;fillColor=none;top=0;left=0;bottom=0;right=0;editable=1;overflow=hidden;" vertex="1" parent="U4mUp0Or5NnO_GNzlO5a-9">
          <mxGeometry width="30" height="30" as="geometry" />
        </mxCell>
        <mxCell id="U4mUp0Or5NnO_GNzlO5a-11" value="Members" style="shape=partialRectangle;connectable=0;fillColor=none;top=0;left=0;bottom=0;right=0;align=left;spacingLeft=6;overflow=hidden;" vertex="1" parent="U4mUp0Or5NnO_GNzlO5a-9">
          <mxGeometry x="30" width="150" height="30" as="geometry" />
        </mxCell>
        <mxCell id="U4mUp0Or5NnO_GNzlO5a-12" value="" style="shape=partialRectangle;collapsible=0;dropTarget=0;pointerEvents=0;fillColor=none;top=0;left=0;bottom=0;right=0;points=[[0,0.5],[1,0.5]];portConstraint=eastwest;" vertex="1" parent="U4mUp0Or5NnO_GNzlO5a-2">
          <mxGeometry y="120" width="180" height="30" as="geometry" />
        </mxCell>
        <mxCell id="U4mUp0Or5NnO_GNzlO5a-13" value="" style="shape=partialRectangle;connectable=0;fillColor=none;top=0;left=0;bottom=0;right=0;editable=1;overflow=hidden;" vertex="1" parent="U4mUp0Or5NnO_GNzlO5a-12">
          <mxGeometry width="30" height="30" as="geometry" />
        </mxCell>
        <mxCell id="U4mUp0Or5NnO_GNzlO5a-14" value="Genre" style="shape=partialRectangle;connectable=0;fillColor=none;top=0;left=0;bottom=0;right=0;align=left;spacingLeft=6;overflow=hidden;" vertex="1" parent="U4mUp0Or5NnO_GNzlO5a-12">
          <mxGeometry x="30" width="150" height="30" as="geometry" />
        </mxCell>
        <mxCell id="U4mUp0Or5NnO_GNzlO5a-66" value="" style="shape=flexArrow;endArrow=classic;html=1;fillColor=#f8cecc;strokeColor=#b85450;" edge="1" parent="1">
          <mxGeometry width="50" height="50" relative="1" as="geometry">
            <mxPoint x="180" y="460" as="sourcePoint" />
            <mxPoint x="370" y="910" as="targetPoint" />
          </mxGeometry>
        </mxCell>
      </root>
    </mxGraphModel>
  </diagram>
</mxfile>
